# xmcd
#
# Track frame offsets:
#	150
#	18395
#	36063
#	56119
#	73606
#	88879
#	99122
#	116714
#	131237
#	155738
#	174843
#
# Disc length: 2587 seconds
#
# Revision: 0
# Processed by: cddbd v1.5.2PL0 Copyright (c) Steve Scherf et al.
# Submitted via: dBpowerAMP V4.0
#
DISCID=920a190b
DTITLE=Bruan McGee and the Hollow Speed - Brian McGee and the Hollow Speed
DYEAR=2008
DGENRE=Country
TTITLE0=Keep On Going
TTITLE1=Clouded Glass
TTITLE2=That's When the Night Comes On
TTITLE3=Plug the Horn, Break the Drum
TTITLE4=Hawk on the Highway
TTITLE5=Two Dollar Jacket
TTITLE6=Built for You
TTITLE7=The Turnaround
TTITLE8=Going Home
TTITLE9=Used to Be
TTITLE10=Hell is Open All Night
EXTD=
EXTT0=
EXTT1=
EXTT2=
EXTT3=
EXTT4=
EXTT5=
EXTT6=
EXTT7=
EXTT8=
EXTT9=
EXTT10=
PLAYORDER=
